<svg width="22" height="29" viewBox="0 0 22 29" fill="none" xmlns="http://www.w3.org/2000/svg">
<path d="M20.9734 15.4667C18.88 10.0267 11.4267 9.73333 13.2267 1.82666C13.36 1.23999 12.7334 0.786661 12.2267 1.09333C7.38671 3.94666 3.90671 9.66666 6.82671 17.16C7.06671 17.7733 6.34671 18.3467 5.82671 17.9467C3.41337 16.12 3.16004 13.4933 3.37337 11.6133C3.45337 10.92 2.54671 10.5867 2.16004 11.16C1.25337 12.5467 0.333374 14.7867 0.333374 18.16C0.840041 25.6267 7.14671 27.92 9.41337 28.2133C12.6534 28.6267 16.16 28.0267 18.68 25.72C21.4534 23.1467 22.4667 19.04 20.9734 15.4667ZM8.60004 22.1733C10.52 21.7067 11.5067 20.32 11.7734 19.0933C12.2134 17.1867 10.4934 15.32 11.6534 12.3067C12.0934 14.8 16.0134 16.36 16.0134 19.08C16.12 22.4533 12.4667 25.3467 8.60004 22.1733Z" fill="#D9DAE3"/>
</svg>
