<svg width="40" height="40" viewBox="0 0 40 40" fill="none" xmlns="http://www.w3.org/2000/svg">
<circle cx="20" cy="20" r="20" fill="#3843D0"/>
<path fill-rule="evenodd" clip-rule="evenodd" d="M4.69687 32.8773C5.302 29.0788 8.69319 25.8746 13.3961 24.304C15.1156 26.0429 17.4122 27.1331 20.0334 27.1331C22.6377 27.1331 24.9215 26.057 26.6374 24.3377C31.3157 25.9294 34.6752 29.1433 35.247 32.9439C31.5784 37.2608 26.1091 39.9998 20.0001 39.9998C13.8597 39.9998 8.36563 37.2326 4.69687 32.8773ZM27.8001 16.1331C27.8001 19.3142 26.3328 22.104 24.1286 23.6685C22.9397 24.5124 21.5364 24.9998 20.0334 24.9998C18.559 24.9998 17.1804 24.5307 16.0061 23.7162C13.7643 22.1611 12.2668 19.3468 12.2668 16.1331C12.2668 11.2362 15.744 7.26648 20.0334 7.26648C24.3229 7.26648 27.8001 11.2362 27.8001 16.1331Z" fill="#FBFEFF"/>
</svg>
